<svg width="39" height="38" viewBox="0 0 39 38" fill="none" xmlns="http://www.w3.org/2000/svg">
<rect x="1.05" y="0.5" width="37" height="37" rx="7.5" fill="#1D4ED8"/>
<rect x="1.05" y="0.5" width="37" height="37" rx="7.5" stroke="#DEE2E6"/>
<path d="M26.75 26.2L23.55 23M23.55 17.4C23.55 18.8853 22.96 20.3096 21.9098 21.3598C20.8596 22.4101 19.4352 23 17.95 23C16.4648 23 15.0404 22.4101 13.9902 21.3598C12.94 20.3096 12.35 18.8853 12.35 17.4C12.35 15.9148 12.94 14.4905 13.9902 13.4403C15.0404 12.39 16.4648 11.8 17.95 11.8C19.4352 11.8 20.8596 12.39 21.9098 13.4403C22.96 14.4905 23.55 15.9148 23.55 17.4Z" stroke="white" stroke-width="1.6" stroke-linecap="round" stroke-linejoin="round"/>
</svg>
