<svg width="16" height="16" viewBox="0 0 16 16" fill="none" xmlns="http://www.w3.org/2000/svg">
<path d="M3.20001 4.00005V12M3.20001 4.00005C3.62435 4.00005 4.03132 3.83148 4.33138 3.53142C4.63144 3.23136 4.80001 2.8244 4.80001 2.40005C4.80001 1.9757 4.63144 1.56874 4.33138 1.26868C4.03132 0.96862 3.62435 0.800049 3.20001 0.800049C2.77566 0.800049 2.36869 0.96862 2.06864 1.26868C1.76858 1.56874 1.60001 1.9757 1.60001 2.40005C1.60001 2.8244 1.76858 3.23136 2.06864 3.53142C2.36869 3.83148 2.77566 4.00005 3.20001 4.00005ZM3.20001 12C2.77566 12 2.36869 12.1686 2.06864 12.4687C1.76858 12.7687 1.60001 13.1757 1.60001 13.6C1.60001 14.0244 1.76858 14.4314 2.06864 14.7314C2.36869 15.0315 2.77566 15.2 3.20001 15.2C3.62435 15.2 4.03132 15.0315 4.33138 14.7314C4.63144 14.4314 4.80001 14.0244 4.80001 13.6C4.80001 13.1757 4.63144 12.7687 4.33138 12.4687C4.03132 12.1686 3.62435 12 3.20001 12ZM12.8 12C12.3757 12 11.9687 12.1686 11.6686 12.4687C11.3686 12.7687 11.2 13.1757 11.2 13.6C11.2 14.0244 11.3686 14.4314 11.6686 14.7314C11.9687 15.0315 12.3757 15.2 12.8 15.2C13.2244 15.2 13.6313 15.0315 13.9314 14.7314C14.2314 14.4314 14.4 14.0244 14.4 13.6C14.4 13.1757 14.2314 12.7687 13.9314 12.4687C13.6313 12.1686 13.2244 12 12.8 12ZM12.8 12V4.80005C12.8 4.16353 12.5472 3.55308 12.0971 3.10299C11.647 2.65291 11.0365 2.40005 10.4 2.40005H8.00001M9.20001 0.800049L7.60001 2.40005L9.20001 4.00005" stroke="#6B7280" stroke-width="1.6" stroke-linecap="round" stroke-linejoin="round"/>
</svg>
